<svg id="Layer_1" data-name="Layer 1" xmlns="http://www.w3.org/2000/svg" viewBox="0 0 272 172.67"><defs><style>.cls-1{fill:#12152c;}</style></defs><title>CriptoMining217logo</title><path class="cls-1" d="M25.44,101.79a114.64,114.64,0,0,1,221.79,0h5.29a119.76,119.76,0,0,0-232.36,0h5.29Z"/><path class="cls-1" d="M170.6,40.21A29.83,29.83,0,0,0,141,61.86l3.27,2.35L145,64.91,159.79,82l1.14-.76,3.26-.37,13.37,5.08,1.68,1.32,3.48,5.06,3.48,2.53A29.83,29.83,0,0,0,170.6,40.21Zm-6.73,18.7L160,60a3.17,3.17,0,0,0-.89.34,1.13,1.13,0,0,0-.27.3c-0.07.11-.15,0.26-0.26,0.46l-1.33,2.53,3.94,2.08-1.1,2.09-6.28-3.31,2.84-5.38a3.41,3.41,0,0,1,.46-0.69,1.78,1.78,0,0,1,.55-0.41,7.08,7.08,0,0,1,1-.38l3.55-1a7,7,0,0,0,.67-0.24,1.86,1.86,0,0,0,.39-0.21,1,1,0,0,0,.22-0.24c0.06-.09.13-0.22,0.22-0.38l1.71-3.24a1,1,0,0,0-.46-1.55l-0.15-.08a1,1,0,0,0-1.54.5L162.33,53,160,51.76l1-1.95q1.58-3,4.38-1.52l1.22,0.64q2.8,1.48,1.22,4.47l-2.21,4.19a2.8,2.8,0,0,1-.58.78A3.08,3.08,0,0,1,163.87,58.91ZM167,71.48l2.15-4.09-4.09-2.15L165.63,63l10.55-9,2.34,1.23-6,11.42,1.34,0.71-1,2-1.34-.71-2.15,4.09Zm6.33,5.82-2.09-1.1,12.36-20.8,2.09,1.1Zm19-13.21L180.65,78.67l-2.31-1.22,11.09-13.72-4.36-2.3,1.14-2.17,6.11,3.22v1.61Z"/><polygon class="cls-1" points="173.9 58.71 168.12 64.31 170.28 65.46 174.02 58.78 173.9 58.71"/><path class="cls-1" d="M168.12,64.31l5.78-5.6L174,58.78l-3.74,6.68Z"/><path class="cls-1" d="M207,71.25a37.34,37.34,0,0,0-72.82-12.82L138.25,60,139,60.43a32.14,32.14,0,1,1,49.21,35.85l0.74,0.54,4.8,1.3L194,98.3A37.3,37.3,0,0,0,207,71.25Z"/><path class="cls-1" d="M30.61,147.4v2.07q0,5.5-5.19,5.5h-2.8q-5.19,0-5.19-5.5V128.1q0-5.5,5.19-5.5h2.8q5.19,0,5.19,5.5v3.65H26.28v-3.34a1.69,1.69,0,0,0-1.94-1.89H23.48a1.6,1.6,0,0,0-1.71,1.89v20.74A1.6,1.6,0,0,0,23.48,151h1.08a1.6,1.6,0,0,0,1.71-1.89V147.4h4.33Z"/><path class="cls-1" d="M38.5,122.59H47q5,0,5,5.55v8q0,4.24-2.57,5.37l3,13.48h-4.1L45.45,141.9H42.83V155H38.5V122.59Zm4.33,15.6h2.84q1.94,0,1.94-2.35v-7q0-2.34-1.94-2.35H42.83V138.2Z"/><path class="cls-1" d="M68.13,155H63.8v-11.9l-5.32-20.47h4.28L66,136.66h0.14l2.93-14.07h4.28l-5.23,20.47V155Z"/><path class="cls-1" d="M80.35,122.59h7.89q5.23,0,5.23,5.55v9.61q0,5.5-5.19,5.5H84.68V155H80.35V122.59Zm4.33,16.73h2.75a1.6,1.6,0,0,0,1.71-1.89v-9a1.69,1.69,0,0,0-1.94-1.89H84.68v12.81Z"/><path class="cls-1" d="M108.31,126.52V155H104V126.52H99.83v-3.92h12.63v3.92h-4.15Z"/><path class="cls-1" d="M124.45,155q-5.23,0-5.23-5.5V128.14q0-5.55,5.19-5.55h4.15q5.19,0,5.19,5.55v21.33q0,5.5-5.23,5.5h-4.06Zm1-3.92h2.21a1.6,1.6,0,0,0,1.71-1.89V128.41a1.69,1.69,0,0,0-1.94-1.89h-2a1.67,1.67,0,0,0-1.89,1.89v20.74A1.69,1.69,0,0,0,125.49,151Z"/><path class="cls-1" d="M150.88,141.62l4-19h4.78V155h-4.33l0.45-21.19-3.25,15.33h-3.34L146,133.78,146.41,155h-4.33V122.59h4.78Z"/><path class="cls-1" d="M168.24,155V122.59h4.33V155h-4.33Z"/><path class="cls-1" d="M190.11,138.24V122.59h4.33V155h-4.33v-6.45l-4.65-14.75V155h-4.33V122.59h4.33Z"/><path class="cls-1" d="M203,155V122.59h4.33V155H203Z"/><path class="cls-1" d="M224.88,138.24V122.59h4.33V155h-4.33v-6.45l-4.65-14.75V155H215.9V122.59h4.33Z"/><path class="cls-1" d="M244.45,143.11v-3.92H251V155h-8.48q-5,0-5-5.46V128.14q0-5.55,5-5.55h3q5.5,0,5.5,5.64v3.52H246.7v-2.89q0-2.34-1.85-2.35h-1.08q-1.89,0-1.89,2.35V148.7q0,2.35,1.89,2.35h2.93v-7.94h-2.25Z"/><path class="cls-1" d="M267.44,167.52H5.23V109.65H267.44v57.86ZM10.34,162.4h252V114.77h-252V162.4Z"/><path class="cls-1" d="M71.59,108.94L81,102.25,82.72,96l1.94-1.15,2.27-4,2.17-2.72L91,85.95l6.83,9.11a1.6,1.6,0,0,0,1.93.56,0.79,0.79,0,0,1,1,.44l2.36,5.27,3.47,5.36-1-5.44a21.33,21.33,0,0,1-1.47-7.8A2.89,2.89,0,0,0,102.88,91l-2.31-1.54-5-6.13,1.9-1,1.34,0.33,3.74,4.22a0.85,0.85,0,0,1,.18.77,0.75,0.75,0,0,1-.51.55l-0.85.24a0.25,0.25,0,0,0-.17.24,0.25,0.25,0,0,0,.16.25l2.32,0.84a4.25,4.25,0,0,1,2.64,3.24L107,96.73c0.31,1.59,3.93,5.51,4.55,7l4.38,3.38,0.62-9A13.75,13.75,0,0,0,114,91.5l-5.77-7.81,10.24-5,12.79-12.62,1.33,1.71-1.34,20.13,3.55-6.67a4.78,4.78,0,0,0,.55-2.24V75.67s1.46-6.92,3.17-6.92L139,69.09a15.37,15.37,0,0,1,.93,4.72,4.82,4.82,0,0,1-.35,2.27h0a0.41,0.41,0,0,0,.12.48,0.32,0.32,0,0,0,.45-0.06c0.67-.8,1.36-1.39,1.85-1.16,0.68,0.32.35,2.6,0.13,3.75a0.41,0.41,0,0,0,.11.37,0.32,0.32,0,0,0,.34.08l0.86-.3a0.81,0.81,0,0,1,.89.25,1,1,0,0,1,.19,1l-2.24,7,3.13-1.84a4.4,4.4,0,0,0,2-3.05L148,79.44l2.89,3.33a4.68,4.68,0,0,0-1.11,3.06V90l-3.58,6a4.76,4.76,0,0,0-.67,2.44v9l2.43-2.81a4.68,4.68,0,0,0,1.11-3.05V97.23a1.86,1.86,0,0,1,.38-1.14l1.77-2.27a1.89,1.89,0,0,0,.33-1.58l-0.2-.83a1.79,1.79,0,0,1,1-2.1l2.82-1a0.78,0.78,0,0,1,.44,0l0.7,0.8a1.05,1.05,0,0,1-.1.63l-0.3.59a14.54,14.54,0,0,0-1.42,4.41L154,97.84l3.72-7.17,0.59,0.68,1.87-1.25-4.49,11.83,3.61-4.09,2.21-1.51a1.32,1.32,0,0,0,.55-1.09V93.12l1.23-.8a1.05,1.05,0,0,1,1-.11,1.22,1.22,0,0,1,.7.75c0.32,0.91.68,1.94,0.75,2a0.41,0.41,0,0,0,.54.15c1.18-.63,2.49-1.17,3.17-0.93,0.92,0.33,2.12,3.62,2.12,3.62l-1.17,2.22a1.43,1.43,0,0,0-.13,1l0.39,1.72a0.51,0.51,0,0,1-.14.48,5.62,5.62,0,0,0-1.32,5.85l0.18-.11c4.73-2.46,10.69-7.82,15.52-2.5,0.91,1,1.69,2.36,3.13,2.23a20.89,20.89,0,0,1,4.6-.4c0.56,0.08,1.12.18,1.67,0.27l0.83,0.9h4.94l-0.41-.42-6.88-7.48-5.43-1.47-7.23-5.26-3.82-5.56-13.37-5.08-3.77,2.51L142.26,67.26l-0.13-.15-5.19-3.73-5.74-2.25L115.75,76.39l-9.93,4.82-9-2.21-1.62.84-2.78-1.18-6.68,7.79-2.3,2.87-2,3.6-2.3,1.36-1.72,6.36-9.21,6.52L67,109.47h4.29Z"/></svg>